<svg width="84" height="94" viewBox="0 0 84 94" fill="none" xmlns="http://www.w3.org/2000/svg">
<path fill-rule="evenodd" clip-rule="evenodd" d="M46.5342 46.7946C47.1712 46.4061 47.7117 45.592 48.1476 44.6873C53.884 47.0318 57.9151 52.5719 57.9151 59.0327C57.9151 67.6157 50.8009 74.5738 42.0251 74.5738C38.4226 74.5738 35.1001 73.4012 32.4349 71.4251C31.5606 71.0111 30.8413 70.6135 30.2527 70.288C29.3397 69.7833 28.741 69.4522 28.3661 69.504C27.2702 69.6551 27.5884 70.6634 27.8775 71.5794C28.0738 72.2016 28.2569 72.7812 27.9736 73.0202C27.6772 73.2706 26.7174 72.3554 25.5958 71.2862C24.0691 69.8304 22.2427 68.0891 21.3814 68.6121C20.7005 69.0257 21.3616 70.1477 22.1709 71.521L22.2309 71.6229C22.5728 72.2034 22.969 72.7946 23.3305 73.334C24.0654 74.4302 24.6573 75.3136 24.3612 75.4631C24.0032 75.6438 21.5089 73.9602 19.4069 71.6229C18.5956 70.7209 17.8098 69.7431 17.0795 68.8344V68.8343C15.4809 66.8452 14.1491 65.1883 13.4015 65.3845C12.5022 65.6206 13.1825 67.4757 14.1822 69.2607C14.6496 70.0955 15.1995 70.9456 15.6755 71.6816V71.6818C16.416 72.8263 16.978 73.6949 16.7742 73.8018C16.4991 73.9455 14.0792 71.5858 12.4355 68.6121C11.4593 66.8458 10.6395 64.8938 9.97589 63.3136C9.25618 61.5997 8.72007 60.3232 8.36706 60.1947C7.14054 59.7484 7.14054 62.2491 7.63246 65.8584C7.69663 66.3293 7.79219 66.8232 7.90985 67.326C12.6804 82.7613 27.335 94 44.6734 94C65.8816 94 83.0741 77.185 83.0741 56.4426C83.0741 36.7004 67.5 20.5161 47.7125 19.0009C47.7374 18.0708 48.2229 16.2266 48.2229 16.2266C48.2229 16.2266 51.7161 7.77468 51.9008 5.96861C51.9129 5.84875 51.9274 5.71849 51.943 5.57976C52.1606 3.62835 52.5654 0 49.4439 0C47.7769 0 47.0018 1.24011 46.1152 2.65842V2.65844C45.7748 3.20292 45.4179 3.77368 44.9879 4.3106C41.8911 8.17793 36.6836 13.0074 33.7309 15.5803C27.4898 21.0185 21.3666 25.488 17.7953 28.0946L17.7951 28.0948C16.1709 29.2803 15.0746 30.0806 14.7354 30.4112C12.1786 32.9037 3.01139 49.4392 3.01139 49.4392C3.01139 49.4392 0.0468065 54.7444 1.10054 55.8204C2.15428 56.8963 4.69536 56.6497 4.69536 56.6497C4.69536 56.6497 38.833 48.8181 41.8892 48.2005C42.7121 48.0342 43.293 47.9382 43.7389 47.8645C44.9498 47.6646 45.1671 47.6286 46.5342 46.7946ZM22.3976 36.7305C20.5652 38.4723 17.5262 42.6297 17.5262 42.6297C17.5262 42.6297 23.1742 42.9776 26.2849 40.0209C29.3957 37.0639 28.683 32.0248 28.683 32.0248C28.683 32.0248 24.2299 34.9887 22.3976 36.7305Z" fill="url(#paint0_linear_1519_22638)"/>
<defs>
<linearGradient id="paint0_linear_1519_22638" x1="-7.35331" y1="7.04886" x2="66.7071" y2="108.47" gradientUnits="userSpaceOnUse">
<stop stop-color="white"/>
<stop offset="1" stop-color="white" stop-opacity="0"/>
</linearGradient>
</defs>
</svg>
