<svg width="72" height="94" viewBox="0 0 72 94" fill="none" xmlns="http://www.w3.org/2000/svg">
<path fill-rule="evenodd" clip-rule="evenodd" d="M53.6704 72.5929C54.8319 68.3461 52.5775 59.6157 52.5775 59.6157C52.5775 59.6157 50.9424 66.7279 48.3875 69.3566C46.2079 71.5989 43.5375 73.1541 39.7078 73.5628C42.839 72.0419 44.9923 68.8707 44.9923 65.2052C44.9923 60.0598 40.7491 55.8886 35.5149 55.8886C30.2806 55.8886 26.0372 60.0598 26.0372 65.2052C26.0372 66.6104 26.3539 67.9432 26.9206 69.138C23.6468 66.5298 23.132 62.3483 23.132 62.3483C23.132 62.3483 19.4763 77.526 29.5493 84.6656C39.6222 91.8052 59.3547 85.6684 59.3547 85.6684C59.3547 85.6684 31.1163 105.537 10.1914 83.9125C-7.83369 65.284 5.48683 40.7593 5.48683 40.7593C5.48683 40.7593 4.91156 43.0344 4.91156 45.6754C4.91156 48.3164 6.34346 50.3259 6.34346 50.3259C6.34346 50.3259 10.6148 41.3226 13.9389 37.6612C17.085 34.1961 21.0288 31.3856 24.4352 28.9581C27.0572 27.0895 29.361 25.4478 30.7368 23.9091C38.315 15.4355 33.6685 0.000976562 33.6685 0.000976562C33.6685 0.000976562 42.2111 7.53199 44.596 17.2584C45.5051 20.9659 44.9202 25.1844 44.3973 28.9567C43.5484 35.0806 42.8623 40.029 48.9952 39.7079C58.906 39.1889 50.2938 23.9091 50.2938 23.9091C50.2938 23.9091 72.7752 35.7252 71.0957 56.3909C69.416 77.0566 46.5224 81.7547 46.5224 81.7547C46.5224 81.7547 52.5088 76.8396 53.6704 72.5929Z" fill="url(#paint0_linear_1519_23756)"/>
<defs>
<linearGradient id="paint0_linear_1519_23756" x1="-6.30195" y1="7.04983" x2="70.4647" y2="97.1332" gradientUnits="userSpaceOnUse">
<stop stop-color="white"/>
<stop offset="1" stop-color="white" stop-opacity="0"/>
</linearGradient>
</defs>
</svg>
