<svg width="91" height="78" viewBox="0 0 91 78" fill="none" xmlns="http://www.w3.org/2000/svg">
<mask id="path-1-inside-1_1519_24567" fill="white">
<path d="M23.4032 26.3928L43.9525 36.6674V13.5494L23.4032 0.706055V26.3928Z"/>
<path d="M46.5212 13.5494V36.6674L67.0706 26.3928V0.706055L46.5212 13.5494Z"/>
<path d="M67.0706 52.0795L46.5212 41.8048V67.4915L67.0706 77.7662V52.0795Z"/>
<path d="M43.9525 67.4915V41.8048L23.4032 52.0795V77.7662L43.9525 67.4915Z"/>
<path d="M67.0706 28.9614L46.5212 39.2361L67.0706 49.5108L90.1886 39.2361L67.0706 28.9614Z"/>
<path d="M23.4032 28.9614L43.9525 39.2361L20.8345 49.5108L0.285156 39.2361L23.4032 28.9614Z"/>
</mask>
<path d="M43.9525 36.6674L27.8701 68.8323L79.9139 94.8542V36.6674H43.9525ZM23.4032 26.3928H-12.5582V48.6181L7.32077 58.5576L23.4032 26.3928ZM23.4032 0.706055L42.4627 -29.7891L-12.5582 -64.1772V0.706055H23.4032ZM43.9525 13.5494H79.9139V-6.3821L63.012 -16.9458L43.9525 13.5494ZM46.5212 36.6674H10.5598V94.8542L62.6036 68.8323L46.5212 36.6674ZM46.5212 13.5494L27.4617 -16.9458L10.5598 -6.3821V13.5494H46.5212ZM67.0706 0.706055H103.032V-64.1772L48.0111 -29.7891L67.0706 0.706055ZM67.0706 26.3928L83.153 58.5576L103.032 48.6181V26.3928H67.0706ZM46.5212 41.8048L62.6036 9.63994L10.5598 -16.382V41.8048H46.5212ZM67.0706 52.0795H103.032V29.8541L83.153 19.9146L67.0706 52.0795ZM67.0706 77.7662L50.9882 109.931L103.032 135.953V77.7662H67.0706ZM46.5212 67.4915H10.5598V89.7168L30.4388 99.6563L46.5212 67.4915ZM43.9525 41.8048H79.9139V-16.382L27.8701 9.63994L43.9525 41.8048ZM43.9525 67.4915L60.035 99.6563L79.9139 89.7168V67.4915H43.9525ZM23.4032 77.7662H-12.5582V135.953L39.4856 109.931L23.4032 77.7662ZM23.4032 52.0795L7.32077 19.9146L-12.5582 29.8541V52.0795H23.4032ZM46.5212 39.2361L30.4388 7.07127L-33.8909 39.2361L30.4388 71.4009L46.5212 39.2361ZM67.0706 28.9614L81.6759 -3.9005L66.1675 -10.7931L50.9882 -3.20341L67.0706 28.9614ZM90.1886 39.2361L104.794 72.098L178.733 39.2361L104.794 6.37418L90.1886 39.2361ZM67.0706 49.5108L50.9882 81.6756L66.1675 89.2653L81.6759 82.3727L67.0706 49.5108ZM43.9525 39.2361L58.5578 72.098L128.192 41.1496L60.035 7.07127L43.9525 39.2361ZM23.4032 28.9614L39.4856 -3.20341L24.3062 -10.7931L8.79788 -3.9005L23.4032 28.9614ZM0.285156 39.2361L-14.3201 6.37418L-83.954 37.3226L-15.7973 71.4009L0.285156 39.2361ZM20.8345 49.5108L4.7521 81.6756L19.9315 89.2653L35.4398 82.3727L20.8345 49.5108ZM60.035 4.5026L39.4856 -5.77208L7.32077 58.5576L27.8701 68.8323L60.035 4.5026ZM59.3646 26.3928V0.706055H-12.5582V26.3928H59.3646ZM4.34369 31.2012L24.893 44.0446L63.012 -16.9458L42.4627 -29.7891L4.34369 31.2012ZM7.99117 13.5494V36.6674H79.9139V13.5494H7.99117ZM82.4826 36.6674V13.5494H10.5598V36.6674H82.4826ZM65.5807 44.0446L86.1301 31.2012L48.0111 -29.7891L27.4617 -16.9458L65.5807 44.0446ZM31.1092 0.706055V26.3928H103.032V0.706055H31.1092ZM50.9882 -5.77208L30.4388 4.5026L62.6036 68.8323L83.153 58.5576L50.9882 -5.77208ZM30.4388 73.9696L50.9882 84.2443L83.153 19.9146L62.6036 9.63994L30.4388 73.9696ZM31.1092 52.0795V77.7662H103.032V52.0795H31.1092ZM83.153 45.6013L62.6036 35.3266L30.4388 99.6563L50.9882 109.931L83.153 45.6013ZM82.4826 67.4915V41.8048H10.5598V67.4915H82.4826ZM7.99117 41.8048V67.4915H79.9139V41.8048H7.99117ZM27.8701 35.3266L7.32077 45.6013L39.4856 109.931L60.035 99.6563L27.8701 35.3266ZM59.3646 77.7662V52.0795H-12.5582V77.7662H59.3646ZM39.4856 84.2443L60.035 73.9696L27.8701 9.63994L7.32077 19.9146L39.4856 84.2443ZM62.6036 71.4009L83.153 61.1263L50.9882 -3.20341L30.4388 7.07127L62.6036 71.4009ZM52.4653 61.8233L75.5833 72.098L104.794 6.37418L81.6759 -3.9005L52.4653 61.8233ZM75.5833 6.37418L52.4653 16.6489L81.6759 82.3727L104.794 72.098L75.5833 6.37418ZM83.153 17.3459L62.6036 7.07127L30.4388 71.4009L50.9882 81.6756L83.153 17.3459ZM60.035 7.07127L39.4856 -3.20341L7.32077 61.1263L27.8701 71.4009L60.035 7.07127ZM8.79788 -3.9005L-14.3201 6.37418L14.8905 72.098L38.0085 61.8233L8.79788 -3.9005ZM-15.7973 71.4009L4.7521 81.6756L36.9169 17.3459L16.3676 7.07127L-15.7973 71.4009ZM35.4398 82.3727L58.5578 72.098L29.3472 6.37418L6.22922 16.6489L35.4398 82.3727Z" fill="url(#paint0_linear_1519_24567)" mask="url(#path-1-inside-1_1519_24567)"/>
<defs>
<linearGradient id="paint0_linear_1519_24567" x1="0.000733375" y1="0.999999" x2="90.0007" y2="78" gradientUnits="userSpaceOnUse">
<stop stop-color="white"/>
<stop offset="1" stop-color="white" stop-opacity="0"/>
</linearGradient>
</defs>
</svg>
