<svg width="88" height="94" viewBox="0 0 88 94" fill="none" xmlns="http://www.w3.org/2000/svg">
<path fill-rule="evenodd" clip-rule="evenodd" d="M80.705 78.0597C80.705 78.0597 68.8522 87.566 45.2655 83.6321C27.3706 80.6474 17.8263 60.921 17.8263 50.3177C17.8263 25.1782 36.4328 19.4573 49.0121 19.4573C61.5912 19.4573 69.7973 31.7213 69.7973 41.2168C69.7973 50.7123 63.0815 59.0177 52.63 59.0177C42.1788 59.0177 39.0834 51.6804 39.0834 44.9346C39.0834 38.189 44.5411 35.8124 49.5185 35.8124C54.4959 35.8124 56.2002 40.0618 56.2002 43.7141C56.2002 47.3665 53.3664 48.6744 51.0028 48.6744C48.6392 48.6744 48.4055 47.4819 47.501 46.2287C46.5962 44.9757 48.6547 40.2324 45.2655 40.2324C41.8764 40.2324 41.2446 45.6853 41.2446 45.6853C41.2446 45.6853 42.4802 56.2113 52.63 56.0297C62.78 55.8479 67.5951 48.0012 66.1958 40.2324C64.7964 32.4634 57.2568 24.2081 44.0244 25.8763C30.7921 27.5444 25.3895 40.9144 27.7709 55.2024C30.1523 69.4906 47.2693 77.7692 60.7276 74.7908C74.1861 71.8123 87.5905 62.069 87.5905 37.3659C87.5905 12.6626 66.1958 -2.18627 40.6845 0.260916C15.1732 2.70809 -0.663039 25.0117 0.350619 51.81C1.36428 78.6083 26.7927 93.2034 48.295 93.9556C69.7973 94.708 82.9792 82.2608 82.9792 82.2608C82.9792 82.2608 85.9437 79.6173 84.7813 77.553C83.6192 75.4886 80.705 78.0597 80.705 78.0597Z" fill="url(#paint0_linear_1519_20608)"/>
<defs>
<linearGradient id="paint0_linear_1519_20608" x1="-8.43167" y1="7.04663" x2="64.1596" y2="112.617" gradientUnits="userSpaceOnUse">
<stop stop-color="white"/>
<stop offset="1" stop-color="white" stop-opacity="0"/>
</linearGradient>
</defs>
</svg>
