<svg width="94" height="75" viewBox="0 0 94 75" fill="none" xmlns="http://www.w3.org/2000/svg">
<path fill-rule="evenodd" clip-rule="evenodd" d="M72.5429 35.9383C72.5376 35.931 72.5354 35.9218 72.5369 35.9128L78.5338 0.944373C78.5365 0.928272 78.5507 0.916504 78.5668 0.916504H80.4648C80.4795 0.916504 80.4923 0.925996 80.4967 0.939949L94.0074 43.7179C94.0116 43.7311 94.007 43.7458 93.996 43.7544L84.0344 51.532C84.0195 51.5436 83.9981 51.5407 83.9869 51.5254L72.5429 35.9383ZM-0.185547 59.1198C-0.185547 59.1343 -0.176221 59.1471 -0.162434 59.1517L20.3724 65.8659C20.3823 65.8692 20.3933 65.8676 20.4019 65.8617L66.302 34.1734C66.3097 34.1681 66.3149 34.1598 66.3161 34.1506L71.2383 1.12367C71.2414 1.1034 71.2256 1.08519 71.2052 1.08519H30.5491C30.5391 1.08519 30.5297 1.08963 30.5233 1.09733L-0.177831 38.1335C-0.182819 38.1396 -0.185547 38.1471 -0.185547 38.155V59.1198ZM28.9293 67.5766L51.3632 74.9254C51.3733 74.9287 51.3845 74.927 51.3931 74.9208L78.1021 55.7622C78.117 55.7517 78.1207 55.7314 78.1106 55.7163L68.0981 40.8168C68.0876 40.8011 68.0667 40.7971 68.0513 40.8078L28.9293 67.5766Z" fill="url(#paint0_linear_1519_32170)"/>
<defs>
<linearGradient id="paint0_linear_1519_32170" x1="-9.61339" y1="6.46639" x2="39.4616" y2="104.278" gradientUnits="userSpaceOnUse">
<stop stop-color="white"/>
<stop offset="1" stop-color="white" stop-opacity="0"/>
</linearGradient>
</defs>
</svg>
