<svg width="328" height="8" viewBox="0 0 328 8" fill="none" xmlns="http://www.w3.org/2000/svg">
<path d="M4 7.5L8 0.5" stroke="#E6E6E6"/>
<path d="M14 7.5L18 0.5" stroke="#E6E6E6"/>
<path d="M24 7.5L28 0.5" stroke="#E6E6E6"/>
<path d="M34 7.5L38 0.5" stroke="#E6E6E6"/>
<rect x="0.5" y="0.5" width="327" height="7" rx="3.5" stroke="black" stroke-opacity="0.1"/>
<path d="M44 7.5L48 0.5" stroke="#E6E6E6"/>
<path d="M54 7.5L58 0.5" stroke="#E6E6E6"/>
<path d="M63.9995 7.5L67.9995 0.5" stroke="#E6E6E6"/>
<path d="M74 7.5L78 0.5" stroke="#E6E6E6"/>
<path d="M83.9995 7.5L87.9995 0.5" stroke="#E6E6E6"/>
<path d="M94 7.5L98 0.5" stroke="#E6E6E6"/>
<path d="M104 7.5L108 0.5" stroke="#E6E6E6"/>
<path d="M114 7.5L118 0.5" stroke="#E6E6E6"/>
<path d="M124 7.5L128 0.5" stroke="#E6E6E6"/>
<path d="M134 7.5L138 0.5" stroke="#E6E6E6"/>
<path d="M144 7.5L148 0.5" stroke="#E6E6E6"/>
<path d="M154 7.5L158 0.5" stroke="#E6E6E6"/>
<path d="M164 7.5L168 0.5" stroke="#E6E6E6"/>
<path d="M174 7.5L178 0.5" stroke="#E6E6E6"/>
<path d="M184 7.5L188 0.5" stroke="#E6E6E6"/>
<path d="M194 7.5L198 0.5" stroke="#E6E6E6"/>
<path d="M204 7.5L208 0.5" stroke="#E6E6E6"/>
<path d="M214 7.5L218 0.5" stroke="#E6E6E6"/>
<path d="M224 7.5L228 0.5" stroke="#E6E6E6"/>
<path d="M234 7.5L238 0.5" stroke="#E6E6E6"/>
<path d="M244 7.5L248 0.5" stroke="#E6E6E6"/>
<path d="M254 7.5L258 0.5" stroke="#E6E6E6"/>
<path d="M264 7.5L268 0.5" stroke="#E6E6E6"/>
<path d="M274 7.5L278 0.5" stroke="#E6E6E6"/>
<path d="M284 7.5L288 0.5" stroke="#E6E6E6"/>
<path d="M294 7.5L298 0.5" stroke="#E6E6E6"/>
<path d="M304 7.5L308 0.5" stroke="#E6E6E6"/>
<path d="M314 7.5L318 0.5" stroke="#E6E6E6"/>
</svg>
